<?xml version="1.0" encoding="UTF-8"?>
<svg xmlns="http://www.w3.org/2000/svg" xmlns:xlink="http://www.w3.org/1999/xlink" width="48px" height="48px" viewBox="0 0 48 48" version="1.1">
<g id="surface1">
<path style=" stroke:none;fill-rule:nonzero;fill:rgb(83.137255%,20%,18.823529%);fill-opacity:1;" d="M 5.539062 13.984375 C 5.539062 13.984375 5.113281 14.476562 4.832031 15.390625 C 4.550781 16.304688 4.675781 17.238281 4.675781 17.238281 C 4.675781 17.238281 6.089844 17.976562 8.453125 18.082031 C 10.398438 18.167969 11.433594 17.820312 12.914062 16.738281 C 14.394531 15.652344 16.914062 17.394531 18.050781 17.925781 C 19.1875 18.453125 29.300781 22.363281 29.300781 22.363281 L 36.65625 22.820312 C 36.65625 22.820312 36.9375 22.007812 36.65625 20.074219 C 36.375 18.136719 34.617188 16.589844 33.242188 16.027344 C 31.871094 15.464844 30.988281 15.394531 30.988281 15.394531 L 22.007812 10.113281 C 22.007812 10.113281 19.53125 9.941406 17.011719 10.5 C 15.113281 10.925781 11.101562 14.582031 8.773438 14.511719 C 6.449219 14.441406 5.539062 13.984375 5.539062 13.984375 Z M 5.539062 13.984375 "/>
<path style=" stroke:none;fill-rule:nonzero;fill:rgb(95.686275%,25.882353%,21.176471%);fill-opacity:1;" d="M 21.988281 7.808594 L 21.015625 2.59375 C 21.015625 2.59375 21.480469 1.875 22.414062 1.71875 C 23.347656 1.5625 24.050781 2.019531 24.050781 2.019531 L 24.929688 8.054688 L 25.636719 8.054688 L 26.300781 2.597656 C 26.300781 2.597656 26.6875 2.140625 27.871094 2.324219 C 28.960938 2.5 29.140625 2.988281 29.140625 2.988281 L 28.542969 8.597656 L 22.242188 11.257812 L 19.460938 10.925781 L 15.960938 5.800781 C 15.960938 5.800781 16.0625 4.9375 16.925781 4.449219 C 17.789062 3.957031 18.40625 4.042969 18.40625 4.042969 L 21.75 8.917969 L 22.050781 8.617188 Z M 21.988281 7.808594 "/>
<path style=" stroke:none;fill-rule:nonzero;fill:rgb(95.686275%,25.882353%,21.176471%);fill-opacity:1;" d="M 28.0625 15.867188 C 28.0625 15.867188 28.824219 15.460938 29.734375 15.375 C 30.640625 15.289062 30.980469 15.394531 30.980469 15.394531 C 30.980469 15.394531 32.292969 13.675781 30.980469 10.617188 C 29.667969 7.554688 25.421875 6.761719 23.101562 7.527344 C 20.78125 8.292969 17.898438 10.113281 17.582031 13.808594 C 17.269531 17.5 17.160156 19.402344 17.160156 19.402344 L 19.402344 20.5625 L 28.210938 19.1875 Z M 28.0625 15.867188 "/>
<path style=" stroke:none;fill-rule:nonzero;fill:rgb(83.137255%,20%,18.823529%);fill-opacity:1;" d="M 25.5625 10.191406 C 25.5625 10.191406 26.25 10.507812 27.425781 10.085938 C 28.832031 9.585938 31.4375 8.84375 32.441406 8.371094 C 33.441406 7.894531 34.289062 7 34.871094 6.839844 C 35.453125 6.683594 36.894531 6.761719 37.578125 8.1875 C 38.265625 9.613281 37.035156 10.851562 37.035156 10.851562 L 30.59375 12.4375 L 28.214844 15.023438 L 27.632812 17.609375 L 27.632812 19.824219 L 38.34375 28.011719 C 38.34375 28.011719 38.507812 30.753906 37.03125 34.976562 C 35.554688 39.199219 34.238281 42 33.660156 43.058594 C 33.082031 44.113281 33.109375 45.4375 31.589844 46.0625 C 30.070312 46.699219 27.007812 45.0625 23.46875 43.53125 C 19.9375 42 15.445312 39.148438 13.707031 36.875 C 11.96875 34.605469 10.484375 32.230469 10.0625 28.695312 C 9.644531 25.15625 11.226562 21.511719 12.96875 20.5625 C 14.710938 19.617188 18.828125 19.824219 18.828125 19.824219 C 18.828125 19.824219 19.070312 19.351562 20.714844 18.824219 C 22.363281 18.300781 23.46875 18.136719 23.46875 18.136719 L 23.046875 15.34375 L 23.34375 12.148438 Z M 25.5625 10.191406 "/>
<path style=" stroke:none;fill-rule:nonzero;fill:rgb(99.607843%,37.254902%,37.254902%);fill-opacity:1;" d="M 30.230469 21.355469 C 30.230469 21.355469 31.601562 20.035156 33.605469 20.246094 C 35.613281 20.457031 37.542969 22.566406 38.019531 24.363281 C 38.492188 26.160156 38.480469 28.550781 38.019531 30.277344 C 37.613281 31.789062 35.734375 35.558594 33.238281 35.558594 C 32.074219 35.558594 31.726562 34.625 31.644531 34.195312 C 31.566406 33.761719 32.25 37.140625 30.542969 37.824219 C 28.917969 38.480469 29.136719 37.402344 29.136719 37.402344 L 29.855469 35.714844 C 29.855469 35.714844 26.78125 30.125 25.355469 28.382812 C 23.929688 26.640625 19.511719 23.148438 19.667969 21.511719 C 19.824219 19.878906 20.25 19.191406 21.832031 18.875 C 23.414062 18.558594 25.316406 18.875 25.316406 18.875 L 28.339844 20.40625 Z M 30.230469 21.355469 "/>
<path style=" stroke:none;fill-rule:nonzero;fill:rgb(100%,41.568627%,39.607843%);fill-opacity:1;" d="M 19.085938 24.507812 C 19.085938 24.507812 18.171875 26.125 16.9375 24.507812 C 15.707031 22.886719 14.6875 21.375 14.789062 17.890625 C 14.894531 14.40625 15.070312 12.648438 14.613281 10.820312 C 14.15625 8.988281 14.011719 7.9375 14.011719 7.9375 L 12.78125 9.097656 L 11.617188 9.375 L 10.84375 8.957031 C 10.84375 8.957031 10.175781 9.0625 10.425781 9.34375 C 10.671875 9.625 11.582031 10.824219 11.96875 11.59375 C 12.480469 12.613281 12.988281 16.0625 11.925781 18.171875 C 10.644531 20.71875 10.207031 22.820312 10.519531 24.96875 C 10.75 26.570312 12.476562 28.625 12.476562 28.625 L 13.757812 29.542969 L 16.644531 29.292969 L 18.898438 26.9375 Z M 19.085938 24.507812 "/>
<path style=" stroke:none;fill-rule:nonzero;fill:rgb(100%,56.078431%,54.901961%);fill-opacity:1;" d="M 13.667969 6.011719 C 12.523438 5.84375 10.90625 6.664062 10.4375 7.753906 C 9.992188 8.769531 10.222656 9.847656 11.515625 9.636719 C 12.8125 9.425781 13.46875 8.738281 13.707031 8.527344 C 13.945312 8.316406 14.609375 10.800781 14.761719 12.277344 C 14.921875 13.753906 14.785156 17.167969 14.761719 18.375 C 14.734375 20.03125 15.207031 24.382812 16.714844 25.261719 C 17.761719 25.871094 18.578125 25.054688 19.261719 24.964844 L 18.980469 22.648438 L 17.875 19.191406 C 17.875 19.191406 17.757812 19.042969 17.46875 18.3125 C 17.179688 17.582031 17.160156 12.71875 16.632812 10.242188 C 16.292969 8.664062 15.175781 6.238281 13.667969 6.011719 Z M 13.667969 6.011719 "/>
<path style=" stroke:none;fill-rule:nonzero;fill:rgb(65.098039%,15.294118%,7.843137%);fill-opacity:1;" d="M 35.929688 7.8125 C 35.714844 8.148438 35.746094 9.398438 35.746094 9.398438 C 35.746094 9.398438 32.445312 10.390625 30.886719 11.253906 C 29.332031 12.117188 27.605469 13.425781 27.101562 15.511719 C 26.597656 17.59375 27.285156 19.03125 27.285156 19.03125 C 27.285156 19.03125 26.261719 18.558594 25.421875 18.265625 C 24.699219 18.015625 24.003906 17.867188 24.003906 17.867188 C 24.003906 17.867188 23.945312 16.234375 23.8125 15.730469 C 23.679688 15.230469 23.363281 14.648438 23.363281 14.011719 C 23.363281 13.378906 23.742188 12.242188 24.242188 11.550781 C 24.695312 10.925781 25.714844 10.242188 25.714844 10.242188 C 25.714844 10.242188 25.660156 10.167969 25.257812 10.152344 C 24.417969 10.113281 23.28125 11.03125 22.757812 12.40625 C 22.230469 13.777344 22.46875 15.851562 22.496094 16.757812 C 22.515625 17.367188 22.550781 17.96875 22.550781 17.96875 C 22.550781 17.96875 21.492188 18.105469 20.714844 18.320312 C 19.9375 18.53125 18.613281 19.480469 18.613281 19.480469 C 18.613281 19.480469 18.191406 19.179688 17.902344 18.734375 C 17.621094 18.300781 17.300781 17.164062 17.300781 17.164062 C 17.300781 17.164062 17.480469 19.433594 17.902344 20.5625 C 18.324219 21.699219 19.011719 24.429688 18.667969 25.84375 C 18.191406 27.800781 16.804688 28.863281 15.164062 28.890625 C 13.527344 28.917969 12.320312 27.84375 11.609375 26.570312 C 11.082031 25.613281 10.4375 23.300781 10.4375 23.300781 C 10.4375 23.300781 10.1875 24.21875 10.226562 25.027344 C 10.261719 25.832031 10.648438 27.757812 12.25 29.039062 C 13.667969 30.175781 14.761719 30.144531 15.605469 30.09375 C 17.160156 29.996094 19.082031 28.449219 19.527344 26.492188 C 19.972656 24.539062 19.507812 22.753906 19.375 22.175781 C 19.246094 21.59375 18.953125 20.5625 18.953125 20.5625 C 18.953125 20.5625 20.273438 19.167969 21.828125 18.875 C 23.386719 18.589844 26.050781 19.457031 27.214844 20.199219 C 28.375 20.9375 31.191406 23.320312 31.03125 25.09375 C 30.871094 26.863281 29.746094 28.074219 29.300781 28.644531 C 28.710938 29.40625 27.933594 29.933594 28.109375 30.308594 C 28.363281 30.84375 29.140625 30.253906 29.71875 29.804688 C 30.300781 29.355469 31.0625 28.378906 31.4375 27.773438 C 31.808594 27.164062 32.125 26.144531 32.125 26.144531 C 32.125 26.144531 33.070312 26.96875 33.390625 28.386719 C 33.707031 29.804688 33.230469 31.679688 33.839844 31.574219 C 34.449219 31.46875 34.65625 29.75 34.527344 28.167969 C 34.398438 26.617188 33.441406 25.578125 32.917969 25.039062 C 32.394531 24.5 32.125 24 32.125 24 C 32.125 24 31.164062 21.546875 29.976562 20.5625 C 28.449219 19.296875 28.09375 16.449219 28.824219 15.15625 C 29.78125 13.460938 31.117188 12.53125 32.65625 12.199219 C 34.820312 11.734375 35.882812 11.800781 36.875 11.707031 C 37.738281 11.625 38.148438 10.644531 38.019531 9.558594 C 37.886719 8.476562 37.382812 7.679688 36.816406 7.433594 C 36.359375 7.230469 36.0625 7.613281 35.929688 7.8125 Z M 35.929688 7.8125 "/>
<path style=" stroke:none;fill-rule:nonzero;fill:rgb(65.098039%,15.294118%,7.843137%);fill-opacity:1;" d="M 14.746094 29.75 C 14.746094 29.75 15.550781 32.261719 15.550781 33.34375 C 15.550781 34.421875 15.457031 35.574219 14.746094 36.164062 C 14.035156 36.753906 15.65625 36.824219 16.148438 35.972656 C 16.796875 34.84375 16.609375 34.054688 16.609375 34.054688 L 17.367188 34.90625 C 17.367188 34.90625 18.15625 37.117188 19.269531 38.433594 C 20.480469 39.867188 21.417969 40.132812 22.804688 40.132812 C 24.257812 40.132812 24.414062 39.492188 23.824219 39.445312 C 23.199219 39.402344 21.953125 39.378906 21.078125 38.824219 C 20.207031 38.269531 19.785156 37.644531 19.210938 36.699219 C 18.953125 36.277344 18.472656 35.101562 18.472656 35.101562 C 18.472656 35.101562 19.664062 35.628906 20.105469 35.101562 C 20.488281 34.648438 18.859375 34.382812 18.402344 34.132812 C 17.628906 33.707031 17.207031 33.023438 16.84375 32.339844 C 16.515625 31.710938 15.871094 29.75 15.871094 29.75 Z M 14.746094 29.75 "/>
<path style=" stroke:none;fill-rule:nonzero;fill:rgb(65.098039%,15.294118%,7.843137%);fill-opacity:1;" d="M 30.628906 28.0625 C 30.628906 28.0625 30.71875 30.382812 30.578125 31.917969 C 30.4375 33.445312 30.136719 34.941406 29.519531 35.929688 C 29.105469 36.59375 28.363281 37.195312 28.167969 37.601562 C 27.957031 38.03125 28.394531 38.300781 28.851562 38.039062 C 29.3125 37.777344 30.101562 37 30.472656 36.230469 C 30.667969 35.824219 31.125 34.699219 31.125 34.699219 C 31.125 34.699219 31.601562 36.546875 31.898438 37.074219 C 32.199219 37.605469 32.65625 38.695312 33.125 38.480469 C 33.601562 38.269531 33.085938 37.421875 32.949219 37.058594 C 32.78125 36.605469 32.386719 35.542969 32.179688 34.644531 C 31.96875 33.75 31.84375 30.6875 31.84375 29.878906 C 31.84375 29.070312 31.738281 27.238281 31.578125 26.570312 C 31.421875 25.902344 30.628906 28.0625 30.628906 28.0625 Z M 30.628906 28.0625 "/>
<path style=" stroke:none;fill-rule:nonzero;fill:rgb(95.686275%,25.882353%,21.176471%);fill-opacity:1;" d="M 11.066406 8.597656 C 11.277344 9.042969 11.992188 8.917969 12.867188 8.28125 C 13.785156 7.609375 13.945312 6.953125 13.511719 6.648438 C 13.101562 6.359375 12.324219 6.617188 11.789062 7.027344 C 11.195312 7.484375 10.820312 8.0625 11.066406 8.597656 Z M 11.066406 8.597656 "/>
</g>
</svg>
